<svg xmlns="http://www.w3.org/2000/svg" width="121.188" height="407.844" viewBox="0 0 121.188 407.844">
  <defs>
    <style>
      .cls-1 {
        fill: #1bc804;
        fill-rule: evenodd;
        opacity: 0.42;
      }
    </style>
  </defs>
  <path class="cls-1" d="M916.073,815.692c1.338-62.154-18.609-101.048-12.782-188.593,5.851-87.492-23.152-90.582-23.152-90.582-52.76-13.2-60.007,24.1-63.007,36.681-3.014,12.617-15.212,81-13.281,214.027,1.451,97.587-1.709,139.163-3.443,154.372,7.425-.417,20.211-1.423,30.628-3.73,1.168-.287,2.284-0.548,3.359-0.824a60.709,60.709,0,0,1,21.113-2.073c4.886,0.349,9.541.969,15.055,1.058,12.241,0.128,23.377-8.085,31.029-12.679l0.053-.025c2.265-1.354,6-2.486,10.18-3.369,3.171-.671,6.577-1.257,9.756-1.7C918.674,914.272,914.714,877.66,916.073,815.692Z" transform="translate(-800.406 -533.75)"/>
</svg>
