<svg xmlns="http://www.w3.org/2000/svg" width="123.343" height="444.468" viewBox="0 0 123.343 444.468">
  <defs>
    <style>
      .cls-1 {
        fill: #1bc804;
        fill-rule: evenodd;
        opacity: 0.42;
      }
    </style>
  </defs>
  <path class="cls-1" d="M765.052,950.342c-21.041-1.3-38.626,4.146-55.046,2.889-18.545-1.422-29.818-4.968-44.571-4.31a181.681,181.681,0,0,1-21.364-.328c-0.081-12.926-.494-82.465-1.756-106.1-1.39-26.122-.129-74.831,1.761-103.462,1.895-28.673,5.376-83.747,7.157-149.421,1.777-65.634,11.64-90.9,73.582-76.955,0,0,26.915,4.627,28.159,53.127,1.2,48.5,2.188,111.014,2.787,127.4,0.6,16.342,10.243,73.209,8.179,137.34C762.33,879.694,764.114,929.683,765.052,950.342Z" transform="translate(-641.719 -508.938)"/>
</svg>
