<svg xmlns="http://www.w3.org/2000/svg" width="174.563" height="370.313" viewBox="0 0 174.563 370.313">
  <defs>
    <style>
      .cls-1 {
        fill: #1bc804;
        fill-rule: evenodd;
        opacity: 0.42;
      }
    </style>
  </defs>
  <path class="cls-1" d="M801.426,609.993c-18.336,55.593-24.011,123.53-13.622,167.585,7.316,30.886,14.926,49.212,18.853,57.4a114.691,114.691,0,0,1,8.647,25.33c1.921,9.051,2.9,19.536.265,27.525-29.042,15.224-48.255,19.569-79.209-6.511-22.572-18.949-69.771-47.8-93.738-62.03a79.084,79.084,0,0,0,4.3-7.327s10.53-11.006,6.716-56.709C649.8,709.52,637.12,643.715,690.57,578.594c53.471-65.086,106.108-53.327,120.761-31.733C811.331,546.861,819.82,554.414,801.426,609.993Z" transform="translate(-642.625 -529.781)"/>
</svg>
